<?xml version="1.0" encoding="UTF-8" standalone="no"?>
<!-- Created with Inkscape (http://www.inkscape.org/) -->

<svg
   width="20mm"
   height="20mm"
   viewBox="0 0 20 20"
   version="1.1"
   id="svg5"
   inkscape:export-filename="C:\Users\fabio\Downloads\In-Blue-Logo.png.original.png"
   inkscape:export-xdpi="96"
   inkscape:export-ydpi="96"
   inkscape:version="1.1.2 (b8e25be833, 2022-02-05)"
   sodipodi:docname="drawing.svg"
   xmlns:inkscape="http://www.inkscape.org/namespaces/inkscape"
   xmlns:sodipodi="http://sodipodi.sourceforge.net/DTD/sodipodi-0.dtd"
   xmlns="http://www.w3.org/2000/svg"
   xmlns:svg="http://www.w3.org/2000/svg">
  <sodipodi:namedview
     id="namedview7"
     pagecolor="#ffffff"
     bordercolor="#666666"
     borderopacity="1.0"
     inkscape:pageshadow="2"
     inkscape:pageopacity="0.0"
     inkscape:pagecheckerboard="false"
     inkscape:document-units="mm"
     showgrid="true"
     inkscape:zoom="6.1148148"
     inkscape:cx="73.346457"
     inkscape:cy="32.298607"
     inkscape:window-width="1920"
     inkscape:window-height="1051"
     inkscape:window-x="-9"
     inkscape:window-y="-9"
     inkscape:window-maximized="1"
     inkscape:current-layer="layer1">
    <inkscape:grid
       type="xygrid"
       id="grid9" />
  </sodipodi:namedview>
  <defs
     id="defs2">
    <clipPath
       clipPathUnits="userSpaceOnUse"
       id="clipPath25776">
      <path
         style="fill:#000000;stroke:#000000;stroke-width:0.264583px;stroke-linecap:butt;stroke-linejoin:miter;stroke-opacity:1"
         d="m 5.8208333,8.2020831 c 0.7827632,-0.6229059 1.4610146,-1.4066864 2.3482898,-1.868718 0.073175,-0.038104 1.3152681,-0.015298 1.7439701,-0.015298 0.1420538,0 0.2865498,-0.00746 0.4283438,0 0.488417,0.025707 0.971964,0.1853274 1.43801,0.3212576 0.275117,0.080243 0.836015,0.2602254 1.070859,0.4589394 0.116049,0.098196 0.184081,0.2071547 0.275363,0.3212576 0.02703,0.033788 0.06583,0.057173 0.09179,0.091788 0.07646,0.1019511 0.08543,0.2063065 0.137682,0.3212579 0.0076,0.016737 0.02478,0.028451 0.0306,0.045894 0.0048,0.014512 -0.0033,0.03096 0,0.045894 -0.007,0.061441 0.04787,0.099698 0.06119,0.15298 0.01642,0.065661 0.0092,0.1499438 0.0306,0.2141717 0.0058,0.017441 0.02531,0.028283 0.0306,0.045894 0.02072,0.069074 0.01806,0.1431539 0.0306,0.214172 0.0095,0.053656 0.05671,0.2719962 0.06119,0.3212576 0.0051,0.055862 -0.007,0.1126183 0,0.1682777 0.0034,0.027249 0.02521,0.049563 0.0306,0.07649 0.005,0.025 -0.0032,0.05119 0,0.07649 0.01004,0.080292 0.03842,0.162537 0.04589,0.2447677 0.02259,0.2485183 0.0153,0.4998225 0.0153,0.7496017 0,0.282137 0.01792,0.580146 -0.04589,0.856687 -0.01914,0.08295 -0.08101,0.188456 -0.107086,0.275363 -0.04687,0.156241 -0.08512,0.290954 -0.152979,0.443642 -0.09719,0.21868 -0.251712,0.411966 -0.38245,0.611919 -0.129782,0.19849 -0.227246,0.40241 -0.336556,0.611919 -0.02956,0.05665 -0.06662,0.10955 -0.09179,0.168278 -0.006,0.01406 0.0057,0.03169 0,0.04589 -0.01527,0.03817 -0.04281,0.07031 -0.06119,0.107086 -0.05746,0.114925 -0.09219,0.23787 -0.152979,0.351854 -0.012,0.0225 -0.03324,0.03905 -0.04589,0.06119 -0.02924,0.05117 -0.03134,0.116035 -0.06119,0.168277 -0.0575,0.100633 -0.109535,0.208055 -0.168278,0.30596 -0.04017,0.06695 -0.09531,0.131081 -0.137682,0.198874 -0.01455,0.02329 -0.01536,0.05364 -0.0306,0.07649 -0.0431,0.06466 -0.09971,0.11501 -0.15298,0.168278 -0.03761,0.03761 -0.06361,0.110714 -0.09179,0.152979 -0.0017,0.0026 -0.03624,0.03142 -0.04589,0.04589 -0.03324,0.04986 -0.04272,0.09758 -0.06119,0.15298 -0.0046,0.01368 -0.02414,0.01769 -0.03059,0.0306 -0.01419,0.02839 -0.01665,0.07919 -0.0306,0.107086 -0.0064,0.0129 -0.02317,0.01823 -0.03059,0.0306 -0.05459,0.09099 0.04812,9.26e-4 -0.06119,0.122384 -0.104681,0.116312 -0.251589,0.198037 -0.38245,0.275364 -0.209862,0.124009 -0.459808,0.250011 -0.703707,0.290661 -0.132442,0.02207 -0.298151,0.0153 -0.4283437,0.0153 -0.2068106,0 -0.2219458,0.0079 -0.4895356,-0.06119 C 9.3641328,15.791419 9.3278338,15.7596 9.2859119,15.74163 9.1614935,15.68831 9.0242618,15.620404 8.9340582,15.51216 8.896141,15.46666 8.884144,15.401053 8.8422702,15.35918 8.838701,15.355579 8.7709812,15.30839 8.76578,15.29799 8.6831575,15.132809 8.607457,14.955806 8.5362754,14.777853 8.5021994,14.692662 8.4112177,14.61526 8.3526998,14.548383 8.2403908,14.42003 8.1431701,14.278324 8.0314422,14.150635 7.9384496,14.044358 7.8346898,13.952822 7.7101846,13.89057 c -0.043326,-0.02166 -0.036499,-0.05119 -0.07649,-0.06119 -0.032325,-0.0081 -0.094101,-0.01645 -0.1223841,-0.0306 -0.00456,-0.0023 0.00424,-0.01247 0,-0.0153 -0.1660501,-0.1107 0.040106,0.043 -0.07649,-0.0153 -0.024498,-0.01225 -0.05237,-0.04511 -0.07649,-0.06119 C 7.2410029,13.62877 7.1062577,13.546705 7.0064768,13.446924 6.9884478,13.428894 6.9786118,13.403764 6.9605828,13.385734 6.8867738,13.311924 6.78887,13.259915 6.7158151,13.18686 6.6482901,13.11934 6.5996477,13.040097 6.5322393,12.972688 c -0.039163,-0.03916 -0.090583,-0.05938 -0.1223838,-0.107085 -0.00895,-0.01342 -0.00809,-0.03147 -0.015298,-0.04589 -0.1118331,-0.223667 -0.1526601,-0.365447 -0.1988736,-0.61192 -0.069576,-0.371068 -0.061192,-0.770987 -0.061192,-1.147348 0,-0.464039 0,-0.928078 0,-1.3921169 0,-0.1682776 0,-0.3365555 0,-0.5048332 0,-0.05954 0.011853,-0.1396111 0,-0.1988738 -0.015417,-0.077082 -0.03046,-0.1523026 -0.045894,-0.2294699 -0.00671,-0.033543 -0.035077,-0.059336 -0.045894,-0.091788 -0.00806,-0.024188 0.00618,-0.051754 0,-0.07649 -0.00959,-0.038379 -0.039844,-0.075065 -0.061192,-0.1070859 -0.00948,-0.014219 0.00772,-0.045756 0,-0.061192 -0.019487,-0.038971 -0.013009,-0.00843 -0.030596,-0.061192 -0.00723,-0.021696 -0.037141,-0.021841 -0.045894,-0.030596 -0.019584,-0.019584 -0.066387,-0.08518 -0.084188,-0.1047213"
         id="path25778" />
    </clipPath>
  </defs>
  <g
     inkscape:label="Layer 1"
     inkscape:groupmode="layer"
     id="layer1">
    <circle
       style="fill:#000000;fill-rule:evenodd;stroke-width:0.285712;fill-opacity:1"
       id="path263"
       cx="10"
       cy="10"
       r="10"
       inkscape:export-filename="C:\Users\fabio\Downloads\In-Blue-Logo.png.original.png"
       inkscape:export-xdpi="96"
       inkscape:export-ydpi="96" />
    <path
       style="fill:#000000;stroke-width:0.0444444"
       id="path6706"
       d="" />
    <path
       style="fill:#ffffff;stroke-width:0.0195312"
       d="m 5.002518,12.768555 c 0.0022,-1.962386 0.0057,-2.206718 0.02869,-2.026368 0.142229,1.113771 0.608761,2.070413 1.413259,2.897943 0.499532,0.513833 1.132759,0.925223 1.807503,1.174284 0.28706,0.105959 0.420769,0.08353 0.490977,-0.08234 0.02007,-0.04741 0.0266,-0.183081 0.0266,-0.55243 v -0.489582 l -0.102539,0.01532 c -0.0564,0.0084 -0.256347,0.01435 -0.444336,0.01317 -0.278358,-0.0018 -0.369098,-0.0096 -0.488888,-0.04205 C 7.41995,13.591372 7.207031,13.407361 7.08078,13.112169 6.98965,12.899094 6.93339,12.799786 6.811429,12.636722 6.721139,12.515999 6.689416,12.486962 6.485319,12.338205 6.437489,12.303344 6.381352,12.245708 6.36057,12.210124 6.30364,12.112645 6.34278,12.083336 6.529871,12.083336 c 0.130901,0 0.160897,0.0079 0.308548,0.08131 0.220129,0.109444 0.315936,0.196779 0.485964,0.442989 0.296086,0.42875 0.528523,0.552405 0.968576,0.515276 0.187236,-0.0158 0.441915,-0.08176 0.473498,-0.122645 0.0092,-0.01196 0.02672,-0.07285 0.03884,-0.135299 0.02831,-0.145888 0.12513,-0.348361 0.213188,-0.445831 0.03797,-0.04203 0.06437,-0.08109 0.05867,-0.08679 -0.0057,-0.0057 -0.09703,-0.02332 -0.202934,-0.03914 C 8.375531,12.218708 8.017908,12.090838 7.675682,11.864663 7.147644,11.515684 6.861089,10.892243 6.8227,10.008878 6.79895,9.4623711 6.91874,9.0555904 7.220601,8.6576836 L 7.327679,8.5165365 7.298059,8.4233085 C 7.210349,8.1472438 7.202299,7.8515711 7.273969,7.5390649 c 0.02587,-0.112793 0.06106,-0.2380371 0.07821,-0.2783203 0.03088,-0.07255 0.03223,-0.07324 0.143216,-0.07301 0.136178,2.813e-4 0.249661,0.029366 0.492902,0.1263231 0.236933,0.094443 0.453185,0.2027672 0.626258,0.3137043 L 8.75123,7.715368 8.90199,7.677189 c 0.671395,-0.170025 1.524657,-0.170025 2.196052,0 l 0.15076,0.038179 0.137932,-0.088412 c 0.07586,-0.048627 0.223352,-0.1311514 0.327755,-0.1833885 0.35475,-0.1774957 0.596605,-0.2560652 0.788227,-0.2560652 h 0.111681 l 0.03998,0.1068602 c 0.02199,0.058773 0.05866,0.1972007 0.08148,0.3076171 0.04773,0.2309073 0.04374,0.5504827 -0.0092,0.7378665 -0.01669,0.059082 -0.03545,0.1251474 -0.04169,0.1468121 -0.0081,0.02825 0.01637,0.073915 0.08664,0.1614711 0.175363,0.2185062 0.299823,0.480296 0.367712,0.7734466 0.04431,0.1913262 0.04414,0.7707211 -2.95e-4,1.0278771 -0.06344,0.367139 -0.202987,0.744204 -0.360283,0.973523 -0.304785,0.444341 -0.974265,0.7926 -1.675202,0.87143 -0.220235,0.02477 -0.216376,0.02089 -0.124059,0.124664 0.04438,0.04988 0.105297,0.143432 0.135378,0.207885 0.104507,0.223926 0.115526,0.339536 0.116736,1.224762 7.82e-4,0.571409 0.0079,0.826216 0.02441,0.874171 0.03007,0.0873 0.132475,0.156926 0.23082,0.156926 0.174476,0 0.893706,-0.326698 1.264241,-0.574261 0.649947,-0.434244 1.215563,-1.040148 1.609541,-1.724189 0.31146,-0.540768 0.530454,-1.207517 0.608797,-1.853544 0.02264,-0.186666 0.02616,0.06606 0.02824,2.027971 l 0.0024,2.241211 h -5 -5 z"
       id="path19366"
       clip-path="url(#clipPath25776)" />
  </g>
</svg>
